<svg width="93" height="93" viewBox="0 0 93 93" fill="none" xmlns="http://www.w3.org/2000/svg">
<path d="M49.27 35.3201C51.4899 35.3201 53.6188 36.2019 55.1885 37.7716C56.7582 39.3412 57.64 41.4702 57.64 43.6901C57.64 44.43 57.934 45.1397 58.4572 45.6629C58.9804 46.1861 59.6901 46.4801 60.43 46.4801C61.17 46.4801 61.8796 46.1861 62.4028 45.6629C62.9261 45.1397 63.22 44.43 63.22 43.6901C63.22 39.9903 61.7503 36.442 59.1342 33.8259C56.518 31.2098 52.9698 29.7401 49.27 29.7401C48.5301 29.7401 47.8204 30.034 47.2972 30.5572C46.774 31.0805 46.48 31.7901 46.48 32.5301C46.48 33.27 46.774 33.9797 47.2972 34.5029C47.8204 35.0261 48.5301 35.3201 49.27 35.3201Z" fill="#4A4E69"/>
<path d="M49.27 24.1601C54.4497 24.1601 59.4172 26.2177 63.0798 29.8803C66.7424 33.5429 68.8 38.5104 68.8 43.6901C68.8 44.43 69.094 45.1397 69.6172 45.6629C70.1404 46.1861 70.8501 46.4801 71.59 46.4801C72.33 46.4801 73.0396 46.1861 73.5628 45.6629C74.0861 45.1397 74.38 44.43 74.38 43.6901C74.38 37.0305 71.7345 30.6437 67.0255 25.9346C62.3164 21.2256 55.9296 18.5801 49.27 18.5801C48.5301 18.5801 47.8204 18.874 47.2972 19.3973C46.774 19.9205 46.48 20.6301 46.48 21.3701C46.48 22.11 46.774 22.8197 47.2972 23.3429C47.8204 23.8661 48.5301 24.1601 49.27 24.1601Z" fill="#4A4E69"/>
<path d="M73.6825 57.389C73.529 56.9411 73.2641 56.5396 72.9127 56.2224C72.5613 55.9051 72.1349 55.6825 71.6737 55.5755L54.9337 51.7532C54.4793 51.6502 54.0064 51.6626 53.558 51.7893C53.1096 51.916 52.7001 52.153 52.3669 52.4786C51.9763 52.8413 51.9484 52.8692 50.1349 56.3288C44.1174 53.556 39.2957 48.7145 36.5476 42.6857C40.0909 40.9001 40.1188 40.9001 40.4815 40.4816C40.8071 40.1483 41.0441 39.7388 41.1708 39.2905C41.2975 38.8421 41.3099 38.3692 41.2069 37.9148L37.3846 21.3701C37.2776 20.9089 37.055 20.4825 36.7377 20.1311C36.4205 19.7796 36.019 19.5147 35.5711 19.3613C34.9195 19.1286 34.2467 18.9604 33.5623 18.8591C32.8571 18.6956 32.1375 18.6021 31.414 18.5801C28.0102 18.5801 24.7458 19.9322 22.339 22.3391C19.9321 24.7459 18.58 28.0103 18.58 31.4141C18.5948 42.8048 23.1263 53.7248 31.1808 61.7793C39.2352 69.8338 50.1552 74.3653 61.546 74.3801C63.2314 74.3801 64.9003 74.0481 66.4574 73.4031C68.0144 72.7582 69.4293 71.8128 70.621 70.6211C71.8128 69.4293 72.7581 68.0145 73.4031 66.4574C74.048 64.9003 74.38 63.2315 74.38 61.5461C74.3809 60.8359 74.3249 60.1269 74.2126 59.4257C74.0953 58.7327 73.918 58.0512 73.6825 57.389Z" fill="#4A4E69"/>
<path d="M46.48 89.0401C69.9629 89.0401 89 70.003 89 46.5201C89 23.0369 69.9629 4.00006 46.48 4.00006C22.9968 4.00006 3.96 23.0369 3.96 46.5201C3.96 57.8431 8.38608 68.1325 15.6025 75.7526L7.0504 85.513C5.84623 86.8873 6.82219 89.0401 8.64944 89.0401H46.48Z" stroke="#4A4E69" stroke-width="6.696" stroke-linecap="round" stroke-linejoin="round"/>
</svg>
