<svg width="89" height="87" viewBox="0 0 89 87" fill="none" xmlns="http://www.w3.org/2000/svg">
<mask id="path-1-outside-1_2_39" maskUnits="userSpaceOnUse" x="0" y="0" width="89" height="87" fill="black">
<rect fill="white" width="89" height="87"/>
<path d="M2 28.1C2 15.3422 12.3422 5 25.1 5H32.8C62.5681 5 86.7 29.1319 86.7 58.9C86.7 71.6578 76.3578 82 63.6 82H55.9C26.1319 82 2 57.8681 2 28.1Z"/>
</mask>
<path d="M2 28.1C2 15.3422 12.3422 5 25.1 5H32.8C62.5681 5 86.7 29.1319 86.7 58.9C86.7 71.6578 76.3578 82 63.6 82H55.9C26.1319 82 2 57.8681 2 28.1Z" fill="#F5EBE0"/>
<path d="M0 25.1C0 11.2377 11.2377 0 25.1 0H32.8C63.6727 0 88.7 25.0273 88.7 55.9L84.7 58.9C84.7 31.8933 61.4636 10 32.8 10H25.1C13.4468 10 4 18.1036 4 28.1L0 25.1ZM88.7 61.9C88.7 75.7623 77.4623 87 63.6 87H55.9C25.0273 87 0 61.9727 0 31.1L4 28.1C4 55.1067 27.2364 77 55.9 77H63.6C75.2532 77 84.7 68.8964 84.7 58.9L88.7 61.9ZM55.9 87C25.0273 87 0 61.9727 0 31.1V25.1C0 11.2377 11.2377 0 25.1 0V10C13.4468 10 4 18.1036 4 28.1V28.1C4 55.1067 27.2364 77 55.9 77V87ZM32.8 0C63.6727 0 88.7 25.0273 88.7 55.9V61.9C88.7 75.7623 77.4623 87 63.6 87V77C75.2532 77 84.7 68.8964 84.7 58.9C84.7 31.8933 61.4636 10 32.8 10V0Z" fill="#D5BDAF" mask="url(#path-1-outside-1_2_39)"/>
<path d="M23.77 50.045C23.5133 50.045 23.3117 49.9717 23.165 49.825C23.0183 49.715 23.0183 49.6233 23.165 49.55C23.9717 49.4033 24.6683 49.11 25.255 48.67C25.8417 48.1933 26.3183 47.6067 26.685 46.91C27.455 45.6267 28.2067 44.3433 28.94 43.06C29.71 41.74 30.4433 40.42 31.14 39.1C31.9833 37.4867 32.845 35.8733 33.725 34.26C34.605 32.61 35.485 30.9783 36.365 29.365C37.2083 27.8617 37.96 26.4133 38.62 25.02C39.28 23.6267 39.775 22.6183 40.105 21.995C40.3617 21.5183 40.8017 21.0967 41.425 20.73C42.085 20.3267 42.7267 20.015 43.35 19.795C43.13 19.795 42.91 19.795 42.69 19.795C42.47 19.7583 42.2317 19.74 41.975 19.74C40.8383 19.74 39.5917 19.8133 38.235 19.96C36.915 20.07 35.6133 20.2533 34.33 20.51C33.0833 20.7667 31.9833 21.115 31.03 21.555C30.0767 21.995 29.435 22.5267 29.105 23.15C28.9583 23.48 28.83 23.81 28.72 24.14C28.61 24.47 28.555 24.8 28.555 25.13C28.555 25.9733 28.8483 26.5783 29.435 26.945C29.4717 26.945 29.49 26.9817 29.49 27.055C29.49 27.1283 29.4167 27.2017 29.27 27.275C29.16 27.3483 29.0683 27.3667 28.995 27.33C28.6283 27.1467 28.2067 26.7067 27.73 26.01C27.29 25.2767 26.9967 24.6717 26.85 24.195C26.74 23.755 26.685 23.3517 26.685 22.985C26.685 22.0317 26.9967 21.2983 27.62 20.785C28.2433 20.235 29.0317 19.85 29.985 19.63C30.9383 19.3733 31.91 19.2267 32.9 19.19C33.9267 19.1167 34.825 19.08 35.595 19.08C36.7683 19.08 38.1617 19.08 39.775 19.08C41.3883 19.0433 42.8733 19.025 44.23 19.025C44.56 19.025 44.9267 19.025 45.33 19.025C45.7333 18.9883 46.155 18.97 46.595 18.97C47.585 18.97 48.6117 19.025 49.675 19.135C50.7383 19.245 51.71 19.4833 52.59 19.85C53.47 20.2167 54.1483 20.785 54.625 21.555C55.3583 22.6917 55.725 23.9017 55.725 25.185C55.725 26.615 55.3033 27.9717 54.46 29.255C53.6533 30.5017 52.6267 31.6017 51.38 32.555C50.1333 33.5083 48.8683 34.2417 47.585 34.755C46.375 35.2317 45.0183 35.5617 43.515 35.745C42.0483 35.9283 40.7283 36.02 39.555 36.02C39.1883 36.02 38.8217 36.02 38.455 36.02C38.125 35.9833 37.8317 35.9467 37.575 35.91C37.5017 35.91 37.465 35.8733 37.465 35.8C37.465 35.6533 37.6117 35.4517 37.905 35.195C38.1983 34.9017 38.4367 34.7733 38.62 34.81C38.9133 34.8467 39.2067 34.865 39.5 34.865C39.7933 34.865 40.105 34.865 40.435 34.865C41.8283 34.865 43.3133 34.6817 44.89 34.315C46.4667 33.9483 47.915 33.2517 49.235 32.225C50.5917 31.1617 51.6183 29.6217 52.315 27.605C52.4983 27.165 52.6083 26.725 52.645 26.285C52.7183 25.8083 52.755 25.35 52.755 24.91C52.755 23.6633 52.4433 22.5633 51.82 21.61C51.1967 20.6567 50.2983 20.1067 49.125 19.96C48.9783 19.9233 48.8133 19.905 48.63 19.905C48.4467 19.905 48.2633 19.905 48.08 19.905C47.3833 19.905 46.6133 19.9967 45.77 20.18C44.9633 20.3633 44.3583 20.7117 43.955 21.225C43.0383 22.435 42.1583 23.81 41.315 25.35C40.4717 26.8533 39.665 28.3933 38.895 29.97C38.125 31.51 37.3917 32.9583 36.695 34.315C36.5117 34.6817 36.1633 35.3417 35.65 36.295C35.1367 37.2117 34.5683 38.275 33.945 39.485C33.3217 40.6583 32.735 41.8317 32.185 43.005C31.635 44.1783 31.195 45.2233 30.865 46.14C30.5717 47.0567 30.4983 47.68 30.645 48.01C30.6817 48.0467 30.7 48.1017 30.7 48.175C30.7 48.285 30.645 48.34 30.535 48.34C30.2417 48.34 29.9483 48.2667 29.655 48.12C29.3617 47.9733 29.0133 47.9 28.61 47.9C28.2433 47.9 27.8767 47.9917 27.51 48.175C27.1433 48.3217 26.6667 48.5967 26.08 49C25.4933 49.4033 24.8333 49.7333 24.1 49.99C24.0267 50.0267 23.9167 50.045 23.77 50.045Z" fill="#D5B7A4"/>
<path d="M33.755 68.09C32.6183 68.09 31.5367 67.76 30.51 67.1C29.4833 66.4767 28.7133 65.505 28.2 64.185C28.0167 63.7083 27.8883 63.195 27.815 62.645C27.7783 62.095 27.76 61.5633 27.76 61.05V60.335C27.76 60.0783 27.7783 59.84 27.815 59.62C27.8883 59.4 28.035 59.29 28.255 59.29C28.3283 59.29 28.365 59.3267 28.365 59.4C28.365 59.62 28.3467 59.84 28.31 60.06C28.31 60.28 28.31 60.5 28.31 60.72C28.31 62.4433 28.7317 63.7633 29.575 64.68C30.455 65.56 31.5367 66 32.82 66C34.1033 66 35.35 65.6333 36.56 64.9C37.77 64.13 38.8883 63.1767 39.915 62.04C40.5017 61.4167 41.1617 60.4817 41.895 59.235C42.665 57.9517 43.4533 56.5217 44.26 54.945C45.1033 53.3317 45.9467 51.6817 46.79 49.995C47.6333 48.2717 48.44 46.6217 49.21 45.045C49.98 43.4317 50.6767 42.02 51.3 40.81C51.8867 39.6733 52.675 38.775 53.665 38.115C54.655 37.455 55.4983 36.9967 56.195 36.74C55.9383 36.74 55.3883 36.7583 54.545 36.795C53.7383 36.8317 52.8767 36.8683 51.96 36.905C51.0433 36.9417 50.31 36.9783 49.76 37.015C48.3667 37.0883 46.955 37.2533 45.525 37.51C44.095 37.7667 42.83 38.115 41.73 38.555C40.63 38.995 39.8417 39.5633 39.365 40.26C39.035 40.7367 38.87 41.2867 38.87 41.91C38.87 43.1567 39.42 44.055 40.52 44.605C40.5933 44.6783 40.63 44.715 40.63 44.715C40.63 44.825 40.5383 44.935 40.355 45.045C40.1717 45.1183 39.9883 45.1367 39.805 45.1C39.5117 44.9167 39.145 44.6233 38.705 44.22C38.3017 43.78 37.9167 43.3217 37.55 42.845C37.22 42.3683 37 41.965 36.89 41.635C36.7067 41.085 36.615 40.645 36.615 40.315C36.615 39.435 36.945 38.72 37.605 38.17C38.265 37.5833 39.1267 37.1433 40.19 36.85C41.2533 36.52 42.39 36.3 43.6 36.19C44.81 36.0433 45.9833 35.9517 47.12 35.915C48.2567 35.8783 49.2283 35.86 50.035 35.86C51.905 35.86 53.5733 35.86 55.04 35.86C56.5433 35.8233 57.9183 35.805 59.165 35.805C60.4483 35.805 61.6767 35.8233 62.85 35.86C64.06 35.8967 65.325 35.9517 66.645 36.025C67.5983 36.0617 68.24 36.245 68.57 36.575C68.9367 36.905 69.12 37.3083 69.12 37.785C69.12 38.4083 68.9183 39.0867 68.515 39.82C68.1117 40.5533 67.745 41.2317 67.415 41.855C67.2683 42.1483 67.03 42.3683 66.7 42.515C66.37 42.625 66.2417 42.515 66.315 42.185C66.3883 41.855 66.4617 41.5067 66.535 41.14C66.6083 40.7367 66.645 40.3517 66.645 39.985C66.645 39.325 66.5167 38.7383 66.26 38.225C66.0033 37.675 65.5633 37.29 64.94 37.07C64.5733 36.9233 64.1333 36.8317 63.62 36.795C63.1067 36.7217 62.5567 36.685 61.97 36.685C60.87 36.685 59.77 36.795 58.67 37.015C57.57 37.235 56.7083 37.5833 56.085 38.06C55.315 38.6467 54.5267 39.6 53.72 40.92C52.95 42.24 52.2167 43.6517 51.52 45.155C50.8233 46.6583 50.2 47.9783 49.65 49.115C49.6133 49.1883 49.595 49.2983 49.595 49.445C49.595 49.6283 49.76 49.72 50.09 49.72C50.6033 49.72 51.3183 49.72 52.235 49.72C53.1883 49.72 54.1783 49.7383 55.205 49.775C56.2317 49.775 57.1117 49.775 57.845 49.775C58.6517 49.775 59.2933 49.83 59.77 49.94C60.2467 50.0133 60.485 50.2517 60.485 50.655C60.485 50.8017 60.3933 51.095 60.21 51.535C59.9533 52.1217 59.66 52.635 59.33 53.075C59.0367 53.4783 58.7983 53.9 58.615 54.34C58.5783 54.4867 58.4133 54.615 58.12 54.725C57.8267 54.835 57.7167 54.8167 57.79 54.67C57.9367 54.34 58.0833 53.9367 58.23 53.46C58.4133 52.9467 58.505 52.5067 58.505 52.14C58.505 51.5533 58.2483 51.26 57.735 51.26H49.155C48.825 51.26 48.5683 51.4067 48.385 51.7C47.3217 53.8267 46.1667 56.1 44.92 58.52C43.71 60.94 42.2983 63.0117 40.685 64.735C39.7683 65.725 38.705 66.5317 37.495 67.155C36.285 67.7783 35.0383 68.09 33.755 68.09Z" fill="#D5B7A4"/>
</svg>
