<svg width="70" height="70" viewBox="0 0 70 70" fill="none" xmlns="http://www.w3.org/2000/svg">
<path d="M69.8246 34.9123C69.8246 15.6756 54.149 0 34.9123 0C15.6756 0 0 15.6756 0 34.9123C0 45.0369 4.36404 54.149 11.2767 60.538C11.2767 60.5729 11.2767 60.5729 11.2418 60.6078C11.5909 60.9569 12.0098 61.2362 12.359 61.5504C12.5684 61.725 12.743 61.8995 12.9525 62.0392C13.5809 62.5629 14.2791 63.0516 14.9425 63.5404C15.1869 63.715 15.3963 63.8546 15.6407 64.0292C16.3041 64.483 17.0023 64.902 17.7355 65.286C17.9798 65.4257 18.2591 65.6002 18.5035 65.7399C19.2018 66.1239 19.9349 66.473 20.703 66.7873C20.9823 66.9269 21.2616 67.0666 21.5409 67.1713C22.309 67.4855 23.077 67.7648 23.8451 68.0092C24.1244 68.1139 24.4037 68.2187 24.683 68.2885C25.5209 68.5329 26.3588 68.7423 27.1967 68.9518C27.4411 69.0216 27.6855 69.0915 27.9648 69.1264C28.9423 69.3359 29.9199 69.4755 30.9323 69.5802C31.072 69.5802 31.2116 69.6152 31.3513 69.6501C32.5383 69.7548 33.7253 69.8246 34.9123 69.8246C36.0993 69.8246 37.2864 69.7548 38.4385 69.6501C38.5781 69.6501 38.7178 69.6152 38.8574 69.5802C39.8699 69.4755 40.8474 69.3359 41.825 69.1264C42.0693 69.0915 42.3137 68.9867 42.593 68.9518C43.4309 68.7423 44.3037 68.5678 45.1067 68.2885C45.386 68.1837 45.6653 68.079 45.9446 68.0092C46.7127 67.7299 47.5157 67.4855 48.2488 67.1713C48.5281 67.0666 48.8074 66.9269 49.0867 66.7873C49.8199 66.473 50.553 66.1239 51.2862 65.7399C51.5655 65.6002 51.8099 65.4257 52.0543 65.286C52.7525 64.8671 53.4508 64.483 54.149 64.0292C54.3934 63.8895 54.6029 63.715 54.8472 63.5404C55.5455 63.0516 56.2088 62.5629 56.8372 62.0392C57.0467 61.8646 57.2213 61.6901 57.4308 61.5504C57.8148 61.2362 58.1988 60.922 58.548 60.6078C58.548 60.5729 58.548 60.5729 58.513 60.538C65.4606 54.149 69.8246 45.0369 69.8246 34.9123ZM52.159 52.2637C42.6978 45.9097 27.1967 45.9097 17.6656 52.2637C16.1295 53.2762 14.8726 54.4632 13.8253 55.755C8.51861 50.3785 5.23685 43.012 5.23685 34.9123C5.23685 18.5384 18.5384 5.23685 34.9123 5.23685C51.2862 5.23685 64.5878 18.5384 64.5878 34.9123C64.5878 43.012 61.306 50.3785 55.9994 55.755C54.9869 54.4632 53.6951 53.2762 52.159 52.2637Z" fill="white"/>
<path d="M34.9123 17.2107C27.6855 17.2107 21.8202 23.076 21.8202 30.3028C21.8202 37.39 27.3712 43.1506 34.7377 43.3601H35.052H35.2963H35.3662C42.4185 43.1157 47.9695 37.39 48.0044 30.3028C48.0044 23.076 42.1392 17.2107 34.9123 17.2107Z" fill="white"/>
</svg>
